<svg xmlns="http://www.w3.org/2000/svg" fill="none" viewBox="0 0 500 500" id="Texture-Pixel-Squre-Dot--Streamline-Textures"><desc>Texture Pixel Squre Dot Streamline Element: https://streamlinehq.com</desc><path fill="#2e3120" d="M112.5 387.5H125V400h-12.5v-12.5Z" stroke-width="1"></path><path fill="#2e3120" d="M25 337.5h12.5V350H25v-12.5Z" stroke-width="1"></path><path fill="#2e3120" d="M0 350h12.5v12.5H0V350Z" stroke-width="1"></path><path fill="#2e3120" d="M62.5 362.5H75V375H62.5v-12.5Z" stroke-width="1"></path><path fill="#2e3120" d="M87.5 362.5H100V375H87.5v-12.5Z" stroke-width="1"></path><path fill="#2e3120" d="M37.5 362.5H50V375H37.5v-12.5Z" stroke-width="1"></path><path fill="#2e3120" d="M87.5 412.5H100V425H87.5v-12.5Z" stroke-width="1"></path><path fill="#2e3120" d="M337.5 412.5H350V425h-12.5v-12.5Z" stroke-width="1"></path><path fill="#2e3120" d="M162.5 412.5H175V425h-12.5v-12.5Z" stroke-width="1"></path><path fill="#2e3120" d="M412.5 412.5H425V425h-12.5v-12.5Z" stroke-width="1"></path><path fill="#2e3120" d="M112.5 362.5H125V375h-12.5v-12.5Z" stroke-width="1"></path><path fill="#2e3120" d="M50 287.5h12.5V300H50v-12.5Z" stroke-width="1"></path><path fill="#2e3120" d="M0 312.5h12.5V325H0v-12.5Z" stroke-width="1"></path><path fill="#2e3120" d="M0 375h12.5v12.5H0V375Z" stroke-width="1"></path><path fill="#2e3120" d="M75 375h12.5l0 12.5H75l0 -12.5Z" stroke-width="1"></path><path fill="#2e3120" d="m100 425 12.5 0v12.5H100l0 -12.5Z" stroke-width="1"></path><path fill="#2e3120" d="M62.5 325H75v12.5H62.5V325Z" stroke-width="1"></path><path fill="#2e3120" d="M100 325h12.5v12.5H100V325Z" stroke-width="1"></path><path fill="#2e3120" d="M0 250h12.5v12.5H0V250Z" stroke-width="1"></path><path fill="#2e3120" d="M87.5 235.5H100V248H87.5v-12.5Z" stroke-width="1"></path><path fill="#2e3120" d="M112.5 131.25H125v12.5h-12.5v-12.5Z" stroke-width="1"></path><path fill="#2e3120" d="M143.75 43.75h12.5v12.5h-12.5v-12.5Z" stroke-width="1"></path><path fill="#2e3120" d="M37.5 95.8333H50v12.4997H37.5V95.8333Z" stroke-width="1"></path><path fill="#2e3120" d="M0 43.75h12.5v12.5H0v-12.5Z" stroke-width="1"></path><path fill="#2e3120" d="M75 13.3333h12.5v12.5H75v-12.5Z" stroke-width="1"></path><path fill="#2e3120" d="M193.75 81.25h12.5v12.5h-12.5v-12.5Z" stroke-width="1"></path><path fill="#2e3120" d="M225 0h12.5v12.5H225V0Z" stroke-width="1"></path><path fill="#2e3120" d="M193.75 169.167h12.5v12.5h-12.5v-12.5Z" stroke-width="1"></path><path fill="#2e3120" d="M237.5 118.75H250v12.5h-12.5v-12.5Z" stroke-width="1"></path><path fill="#2e3120" d="M75 181.667h12.5v12.5H75v-12.5Z" stroke-width="1"></path><path fill="#2e3120" d="M50 250h12.5v12.5H50V250Z" stroke-width="1"></path><path fill="#2e3120" d="M75 350h12.5l0 12.5H75l0 -12.5Z" stroke-width="1"></path><path fill="#2e3120" d="M12.5 275H25v12.5H12.5V275Z" stroke-width="1"></path><path fill="#2e3120" d="M75 275h12.5v12.5H75V275Z" stroke-width="1"></path><path fill="#2e3120" d="M25 400h12.5v12.5H25V400Z" stroke-width="1"></path><path fill="#2e3120" d="m100 400 12.5 0 0 12.5H100l0 -12.5Z" stroke-width="1"></path><path fill="#2e3120" d="M25 300h12.5v12.5H25V300Z" stroke-width="1"></path><path fill="#2e3120" d="M25 212.5h12.5V225H25v-12.5Z" stroke-width="1"></path><path fill="#2e3120" d="M87.5 300H100v12.5H87.5V300Z" stroke-width="1"></path><path fill="#2e3120" d="M237.5 387.5H250V400h-12.5v-12.5Z" stroke-width="1"></path><path fill="#2e3120" d="M150 337.5h12.5V350H150v-12.5Z" stroke-width="1"></path><path fill="#2e3120" d="M187.5 362.5H200V375h-12.5v-12.5Z" stroke-width="1"></path><path fill="#2e3120" d="M212.5 362.5H225V375h-12.5v-12.5Z" stroke-width="1"></path><path fill="#2e3120" d="M162.5 362.5H175V375h-12.5v-12.5Z" stroke-width="1"></path><path fill="#2e3120" d="M237.5 362.5H250V375h-12.5v-12.5Z" stroke-width="1"></path><path fill="#2e3120" d="M175 287.5h12.5V300H175v-12.5Z" stroke-width="1"></path><path fill="#2e3120" d="M125 312.5h12.5V325H125v-12.5Z" stroke-width="1"></path><path fill="#2e3120" d="M125 375h12.5v12.5H125V375Z" stroke-width="1"></path><path fill="#2e3120" d="M200 375h12.5l0 12.5H200l0 -12.5Z" stroke-width="1"></path><path fill="#2e3120" d="M125 425h12.5v12.5H125V425Z" stroke-width="1"></path><path fill="#2e3120" d="M225 425h12.5v12.5H225V425Z" stroke-width="1"></path><path fill="#2e3120" d="M212.5 412.5H225l0 12.5 -12.5 0v-12.5Z" stroke-width="1"></path><path fill="#2e3120" d="M187.5 325H200v12.5h-12.5V325Z" stroke-width="1"></path><path fill="#2e3120" d="M225 325h12.5v12.5H225V325Z" stroke-width="1"></path><path fill="#2e3120" d="M125 250h12.5v12.5H125V250Z" stroke-width="1"></path><path fill="#2e3120" d="M212.5 250H225v12.5h-12.5V250Z" stroke-width="1"></path><path fill="#2e3120" d="M175 235.5h12.5V248H175v-12.5Z" stroke-width="1"></path><path fill="#2e3120" d="M200 350h12.5l0 12.5H200l0 -12.5Z" stroke-width="1"></path><path fill="#2e3120" d="M137.5 275H150v12.5h-12.5V275Z" stroke-width="1"></path><path fill="#2e3120" d="M200 275h12.5v12.5H200V275Z" stroke-width="1"></path><path fill="#2e3120" d="M137.5 400H150v12.5h-12.5V400Z" stroke-width="1"></path><path fill="#2e3120" d="m225 400 12.5 0 0 12.5H225l0 -12.5Z" stroke-width="1"></path><path fill="#2e3120" d="M150 300h12.5v12.5H150V300Z" stroke-width="1"></path><path fill="#2e3120" d="M150 212.5h12.5V225H150v-12.5Z" stroke-width="1"></path><path fill="#2e3120" d="M212.5 300H225v12.5h-12.5V300Z" stroke-width="1"></path><path fill="#2e3120" d="M225 212.5h12.5V225H225v-12.5Z" stroke-width="1"></path><path fill="#2e3120" d="M362.5 387.5H375V400h-12.5v-12.5Z" stroke-width="1"></path><path fill="#2e3120" d="M275 337.5h12.5V350H275v-12.5Z" stroke-width="1"></path><path fill="#2e3120" d="M312.5 362.5H325V375h-12.5v-12.5Z" stroke-width="1"></path><path fill="#2e3120" d="M337.5 362.5H350V375h-12.5v-12.5Z" stroke-width="1"></path><path fill="#2e3120" d="M287.5 362.5H300V375h-12.5v-12.5Z" stroke-width="1"></path><path fill="#2e3120" d="M362.5 362.5H375V375h-12.5v-12.5Z" stroke-width="1"></path><path fill="#2e3120" d="M300 287.5h12.5V300H300v-12.5Z" stroke-width="1"></path><path fill="#2e3120" d="M250 312.5h12.5V325H250v-12.5Z" stroke-width="1"></path><path fill="#2e3120" d="M250 375h12.5v12.5H250V375Z" stroke-width="1"></path><path fill="#2e3120" d="M325 375h12.5l0 12.5H325V375Z" stroke-width="1"></path><path fill="#2e3120" d="m350 425 12.5 0v12.5H350V425Z" stroke-width="1"></path><path fill="#2e3120" d="M312.5 325H325v12.5h-12.5V325Z" stroke-width="1"></path><path fill="#2e3120" d="M350 325h12.5v12.5H350V325Z" stroke-width="1"></path><path fill="#2e3120" d="M250 250h12.5v12.5H250V250Z" stroke-width="1"></path><path fill="#2e3120" d="M337.5 235.5H350V248h-12.5v-12.5Z" stroke-width="1"></path><path fill="#2e3120" d="M362.5 131.25H375v12.5h-12.5v-12.5Z" stroke-width="1"></path><path fill="#2e3120" d="M393.75 43.75h12.5v12.5h-12.5v-12.5Z" stroke-width="1"></path><path fill="#2e3120" d="M287.5 95.8333H300v12.4997h-12.5V95.8333Z" stroke-width="1"></path><path fill="#2e3120" d="M250 43.75h12.5v12.5H250v-12.5Z" stroke-width="1"></path><path fill="#2e3120" d="M325 13.3333h12.5v12.5H325v-12.5Z" stroke-width="1"></path><path fill="#2e3120" d="M443.75 81.25h12.5v12.5h-12.5v-12.5Z" stroke-width="1"></path><path fill="#2e3120" d="M475 0h12.5v12.5H475V0Z" stroke-width="1"></path><path fill="#2e3120" d="M443.75 169.167h12.5v12.5h-12.5v-12.5Z" stroke-width="1"></path><path fill="#2e3120" d="M487.5 118.75H500v12.5h-12.5v-12.5Z" stroke-width="1"></path><path fill="#2e3120" d="M325 181.667h12.5v12.5H325v-12.5Z" stroke-width="1"></path><path fill="#2e3120" d="M300 250h12.5v12.5H300V250Z" stroke-width="1"></path><path fill="#2e3120" d="M325 350h12.5l0 12.5H325V350Z" stroke-width="1"></path><path fill="#2e3120" d="M262.5 275H275v12.5h-12.5V275Z" stroke-width="1"></path><path fill="#2e3120" d="M325 275h12.5v12.5H325V275Z" stroke-width="1"></path><path fill="#2e3120" d="m350 400 12.5 0 0 12.5H350V400Z" stroke-width="1"></path><path fill="#2e3120" d="M275 300h12.5v12.5H275V300Z" stroke-width="1"></path><path fill="#2e3120" d="M275 212.5h12.5V225H275v-12.5Z" stroke-width="1"></path><path fill="#2e3120" d="M337.5 300H350v12.5h-12.5V300Z" stroke-width="1"></path><path fill="#2e3120" d="M487.5 387.5H500V400h-12.5v-12.5Z" stroke-width="1"></path><path fill="#2e3120" d="M400 337.5h12.5V350H400v-12.5Z" stroke-width="1"></path><path fill="#2e3120" d="M437.5 362.5H450V375h-12.5v-12.5Z" stroke-width="1"></path><path fill="#2e3120" d="M462.5 362.5H475V375h-12.5v-12.5Z" stroke-width="1"></path><path fill="#2e3120" d="M412.5 362.5H425V375h-12.5v-12.5Z" stroke-width="1"></path><path fill="#2e3120" d="M487.5 362.5H500V375h-12.5v-12.5Z" stroke-width="1"></path><path fill="#2e3120" d="M425 287.5h12.5V300H425v-12.5Z" stroke-width="1"></path><path fill="#2e3120" d="M375 312.5h12.5V325H375v-12.5Z" stroke-width="1"></path><path fill="#2e3120" d="M375 375h12.5v12.5H375V375Z" stroke-width="1"></path><path fill="#2e3120" d="M450 375h12.5l0 12.5H450V375Z" stroke-width="1"></path><path fill="#2e3120" d="M375 425h12.5v12.5H375V425Z" stroke-width="1"></path><path fill="#2e3120" d="M475 425h12.5v12.5H475V425Z" stroke-width="1"></path><path fill="#2e3120" d="M437.5 325H450v12.5h-12.5V325Z" stroke-width="1"></path><path fill="#2e3120" d="M475 325h12.5v12.5H475V325Z" stroke-width="1"></path><path fill="#2e3120" d="M375 250h12.5v12.5H375V250Z" stroke-width="1"></path><path fill="#2e3120" d="M462.5 250H475v12.5h-12.5V250Z" stroke-width="1"></path><path fill="#2e3120" d="M425 250h12.5v12.5H425V250Z" stroke-width="1"></path><path fill="#2e3120" fill-rule="evenodd" d="M37.5 425H25v12.5H12.5V450H0v25h12.5v12.5H0V500h25v-12.5h12.5V500H75v-12.5h12.5V500H100v-12.5h12.5V500H150v-12.5h12.5V500H200v-12.5h12.5V500H225v-12.5h12.5V500H275v-12.5h12.5V500H325v-12.5h12.5V500H350v-12.5h12.5V500H400v-12.5h12.5V500H450v-12.5h12.5V500H475v-12.5h12.5V500H500v-12.5h-12.5l0 -12.5H500v-12.5h-12.5l0 -12.5H500v-12.5h-12.5l0 12.5H475v-12.5h-12.5V425H450v12.5h-12.5V450H425v-12.5h-12.5V425l-12.5 0 0 12.5h-12.5V450H375v-12.5h-12.5l0 12.5H350v-12.5h-12.5l0 -12.5 -12.5 0v12.5h-12.5V450H300v-12.5h-12.5l0 -12.5H275l0 12.5h-12.5V450H250v-12.5h-12.5l0 12.5H225l0 -12.5h-12.5l0 -12.5 -12.5 0 0 12.5h-12.5V450H175v-12.5h-12.5l0 -12.5 -12.5 0 0 12.5h-12.5V450H125v-12.5h-12.5l0 12.5H100l0 -12.5H87.5l0 -12.5 -12.5 0 0 12.5H62.5V450H50v-12.5H37.5V425ZM50 450v12.5H37.5V450H50Zm12.5 0H75v12.5H62.5V450Zm50 0 0 12.5H125V450h-12.5Zm62.5 0v12.5h-12.5V450H175Zm12.5 0H200v12.5h-12.5V450Zm50 0v12.5H250V450h-12.5Zm62.5 0v12.5h-12.5V450H300Zm12.5 0H325v12.5h-12.5V450Zm50 0 0 12.5H375V450h-12.5Zm62.5 0v12.5h-12.5V450H425Zm12.5 0H450v12.5h-12.5V450Zm12.5 37.5h-25V475h25v12.5ZM387.5 475v12.5h-25l0 -12.5h25Zm0 0v-12.5H400V475h-12.5ZM325 487.5h-25V475h25v12.5ZM262.5 475v12.5h-25V475h25Zm0 0v-12.5H275V475h-12.5ZM200 487.5h-25V475h25v12.5ZM137.5 475v12.5h-25l0 -12.5h25Zm0 0v-12.5H150V475h-12.5ZM75 487.5H50V475h25v12.5ZM12.5 475v-12.5H25V475H12.5ZM475 462.5h-12.5V475H475v-12.5Zm-125 0h-12.5V475H350v-12.5Zm-125 0h-12.5V475H225v-12.5Zm-125 0H87.5V475H100v-12.5Z" clip-rule="evenodd" stroke-width="1"></path><path fill="#2e3120" d="M450 350h12.5l0 12.5H450V350Z" stroke-width="1"></path><path fill="#2e3120" d="M387.5 275H400v12.5h-12.5V275Z" stroke-width="1"></path><path fill="#2e3120" d="M450 275h12.5v12.5H450V275Z" stroke-width="1"></path><path fill="#2e3120" d="M387.5 400H400v12.5h-12.5V400Z" stroke-width="1"></path><path fill="#2e3120" d="m475 400 12.5 0 0 12.5H475V400Z" stroke-width="1"></path><path fill="#2e3120" d="M462.5 412.5H475V425h-12.5l0 -12.5Z" stroke-width="1"></path><path fill="#2e3120" d="M487.5 412.5H500V425l-12.5 0v-12.5Z" stroke-width="1"></path><path fill="#2e3120" d="M37.5 387.5H50V400l-12.5 0 0 -12.5Z" stroke-width="1"></path><path fill="#2e3120" d="M75 400h12.5l0 12.5H75V400Z" stroke-width="1"></path><path fill="#2e3120" d="M62.5 400 50 400l0 12.5h12.5V400Z" stroke-width="1"></path><path fill="#2e3120" d="M50 425h12.5v12.5H50V425Z" stroke-width="1"></path><path fill="#2e3120" d="m150 387.5 0 12.5h25l0 12.5h12.5V425H200l0 -12.5h-12.5V400H175v-12.5h-25Z" stroke-width="1"></path><path fill="#2e3120" d="M275 387.5V400h25v-12.5h-25Z" stroke-width="1"></path><path fill="#2e3120" d="M300 412.5h-12.5l0 12.5H300l0 12.5h12.5V425H300v-12.5Z" stroke-width="1"></path><path fill="#2e3120" d="M312.5 400H325v12.5h-12.5V400Z" stroke-width="1"></path><path fill="#2e3120" d="M337.5 387.5H350V400h-12.5l0 -12.5Z" stroke-width="1"></path><path fill="#2e3120" d="M462.5 400H450v12.5h-12.5V400H425v-12.5h-25l0 12.5h25v12.5h12.5V425H450v-12.5h12.5l0 -12.5Z" stroke-width="1"></path><path fill="#2e3120" d="M400 300h12.5v12.5H400V300Z" stroke-width="1"></path><path fill="#2e3120" d="M400 212.5h12.5V225H400v-12.5Z" stroke-width="1"></path><path fill="#2e3120" d="M462.5 300H475v12.5h-12.5V300Z" stroke-width="1"></path><path fill="#2e3120" d="M475 212.5h12.5V225H475v-12.5Z" stroke-width="1"></path><path fill="#2e3120" d="M12.5 412.5H0v25h12.5v-25Z" stroke-width="1"></path><path fill="#2e3120" d="M262.5 412.5h-25V425l12.5 0 0 12.5h12.5v-25Z" stroke-width="1"></path></svg>